<svg width="70" height="33" viewBox="0 0 70 33" fill="none" xmlns="http://www.w3.org/2000/svg">
<path d="M39.6197 25.9354C39.6219 27.6778 40.3155 29.348 41.5481 30.5795C42.7807 31.811 44.4516 32.503 46.194 32.5036H63.4356C65.1766 32.5016 66.8457 31.8088 68.0765 30.5774C69.3072 29.3459 69.999 27.6764 70 25.9354V9.30554H53.3314C53.301 9.30554 53.2835 9.30554 53.2372 9.30554H0V25.9361C0.00201048 27.6777 0.694631 29.3473 1.92593 30.5789C3.15723 31.8105 4.82669 32.5035 6.5682 32.5059H23.8189C24.9785 32.5027 26.1163 32.1914 27.1159 31.6039C28.1156 31.0163 28.9411 30.1737 29.5079 29.1621C30.0781 28.1833 30.3816 27.072 30.3879 25.9392L30.378 21.5946C30.381 20.724 30.7283 19.8899 31.3441 19.2744C31.9599 18.6589 32.7941 18.312 33.6648 18.3094H36.352C37.2225 18.312 38.0566 18.6589 38.6721 19.2745C39.2876 19.89 39.6346 20.7241 39.6372 21.5946L39.6197 25.9354ZM66.7186 25.9354C66.7164 26.8056 66.3698 27.6395 65.7547 28.2549C65.1395 28.8703 64.3057 29.2173 63.4356 29.2199H46.194C45.3232 29.2183 44.4884 28.8718 43.8725 28.2562C43.2565 27.6407 42.9094 26.8062 42.9072 25.9354V15.8775C42.9096 15.0066 43.2567 14.172 43.8725 13.5561C44.4884 12.9402 45.323 12.5932 46.194 12.5908H63.4356C64.3059 12.5942 65.1395 12.9417 65.7546 13.5574C66.3696 14.1732 66.7162 15.0072 66.7186 15.8775V25.9354Z" fill="#F4F4F4"/>
<path d="M6.5711 12.5908H23.815C24.6863 12.5908 25.5219 12.9369 26.138 13.553C26.7541 14.1691 27.1002 15.0048 27.1002 15.8761V25.9316C27.1002 26.8033 26.754 27.6393 26.1376 28.2557C25.5212 28.8721 24.6852 29.2184 23.8135 29.2184H6.57186C5.70056 29.2184 4.86495 28.8723 4.24885 28.2562C3.63274 27.6401 3.28662 26.8045 3.28662 25.9332V15.8753C3.28662 15.0042 3.63266 14.1688 4.24862 13.5528C4.86458 12.9369 5.7 12.5908 6.5711 12.5908Z" fill="#3859AE"/>
<path d="M46.194 12.5908H63.4318C64.3035 12.5908 65.1395 12.9371 65.7559 13.5535C66.3723 14.1699 66.7186 15.0059 66.7186 15.8776V25.9339C66.7186 26.805 66.3725 27.6404 65.7566 28.2564C65.1406 28.8724 64.3052 29.2184 63.4341 29.2184H46.1902C45.3195 29.2184 44.4845 28.8725 43.8688 28.2568C43.2531 27.6412 42.9072 26.8061 42.9072 25.9354V15.8776C42.9072 15.0059 43.2535 14.1699 43.8699 13.5535C44.4863 12.9371 45.3223 12.5908 46.194 12.5908Z" fill="#FF3D2F"/>
<path d="M18.6477 9.31848C19.4836 8.8572 20.4032 8.33663 20.7603 8.10941C21.2232 7.81379 21.6016 8.68013 21.8098 9.31848H25.0252C24.4058 7.65952 23.544 5.30672 22.8319 3.27311C21.5742 -0.313066 18.6523 1.39605 18.6523 1.39605L0.0488281 9.31848H18.6477Z" fill="#C9D1D1"/>
<path d="M51.3926 9.31848C50.5567 8.8572 49.6447 8.33663 49.2837 8.10941C48.8171 7.81379 48.441 8.68013 48.2313 9.31848H45.0151C45.6284 7.65952 46.4963 5.30672 47.2084 3.27311C48.4661 -0.313066 51.3926 1.39605 51.3926 1.39605L69.99 9.31848H51.3926Z" fill="#C9D1D1"/>
</svg>
