<svg width="21" height="21" viewBox="0 0 21 21" fill="none" xmlns="http://www.w3.org/2000/svg">
<path d="M10.5 10.989C9.05625 10.989 7.82031 10.4994 6.79219 9.52026C5.76406 8.5411 5.25 7.36401 5.25 5.98901C5.25 4.61401 5.76406 3.43693 6.79219 2.45776C7.82031 1.4786 9.05625 0.989014 10.5 0.989014C11.9437 0.989014 13.1797 1.4786 14.2078 2.45776C15.2359 3.43693 15.75 4.61401 15.75 5.98901C15.75 7.36401 15.2359 8.5411 14.2078 9.52026C13.1797 10.4994 11.9437 10.989 10.5 10.989ZM0 20.989V17.489C0 16.7807 0.191625 16.1298 0.574875 15.5365C0.958125 14.9432 1.4665 14.4898 2.1 14.1765C3.45625 13.5307 4.83437 13.0465 6.23437 12.724C7.63437 12.4015 9.05625 12.2398 10.5 12.239C11.9437 12.239 13.3656 12.4007 14.7656 12.724C16.1656 13.0473 17.5437 13.5315 18.9 14.1765C19.5344 14.489 20.0432 14.9423 20.4264 15.5365C20.8097 16.1307 21.0009 16.7815 21 17.489V20.989H0Z" fill="white"/>
</svg>
