<svg width="20" height="21" viewBox="0 0 20 21" fill="none" xmlns="http://www.w3.org/2000/svg">
<path d="M7.39687 15.7828C5.32954 15.7828 3.58009 15.0666 2.14851 13.6342C0.716927 12.2019 0.000758653 10.4525 0 8.38588C0 6.31855 0.716169 4.5691 2.14851 3.13752C3.58084 1.70594 5.3303 0.989772 7.39687 0.989014C9.4642 0.989014 11.214 1.70518 12.6464 3.13752C14.0787 4.56986 14.7945 6.31931 14.7937 8.38588C14.7937 9.2204 14.661 10.0075 14.3954 10.7472C14.1299 11.4869 13.7696 12.1412 13.3144 12.7102L19.6871 19.0829C19.8957 19.2915 20 19.5571 20 19.8795C20 20.2019 19.8957 20.4674 19.6871 20.6761C19.4784 20.8847 19.2129 20.989 18.8905 20.989C18.568 20.989 18.3025 20.8847 18.0939 20.6761L11.7212 14.3034C11.1522 14.7586 10.4979 15.1189 9.75818 15.3845C9.01849 15.65 8.23139 15.7828 7.39687 15.7828ZM7.39687 13.5068C8.81934 13.5068 10.0286 13.0091 11.0247 12.0138C12.0209 11.0184 12.5185 9.80912 12.5178 8.38588C12.5178 6.96341 12.0201 5.75449 11.0247 4.75914C10.0294 3.76379 8.8201 3.26573 7.39687 3.26497C5.97439 3.26497 4.76548 3.76303 3.77013 4.75914C2.77477 5.75525 2.27672 6.96417 2.27596 8.38588C2.27596 9.80836 2.77402 11.0177 3.77013 12.0138C4.76624 13.0099 5.97515 13.5076 7.39687 13.5068Z" fill="white"/>
</svg>
